HIERARCHY
ROOT Hips
{
    OFFSET 0.000000 0.000000 0.000000
    CHANNELS 6 Xposition Yposition Zposition Zrotation Xrotation Yrotation
    JOINT Spine
    {
        OFFSET -0.000000 7.236184 0.000000
        CHANNELS 3 Zrotation Xrotation Yrotation
        JOINT Spine1
        {
            OFFSET -0.000000 20.420147 0.000000
            CHANNELS 3 Zrotation Xrotation Yrotation
            JOINT Neck
            {
                OFFSET -0.000000 20.336288 1.848754
                CHANNELS 3 Zrotation Xrotation Yrotation
                JOINT Head
                {
                    OFFSET -0.000000 12.354461 -1.764923
                    CHANNELS 3 Zrotation Xrotation Yrotation
                    End Site
                    {
                        OFFSET -0.000000 22.061537 0.000000
                    }
                }
            }
            JOINT LeftShoulder
            {
                OFFSET 3.573296 18.396038 -0.314103
                CHANNELS 3 Zrotation Xrotation Yrotation
                JOINT LeftArm
                {
                    OFFSET 10.880760 0.000000 0.000000
                    CHANNELS 3 Zrotation Xrotation Yrotation
                    JOINT LeftForeArm
                    {
                        OFFSET 27.185530 0.000000 0.000000
                        CHANNELS 3 Zrotation Xrotation Yrotation
                        JOINT LeftHand
                        {
                            OFFSET 27.825975 0.000000 0.000000
                            CHANNELS 3 Zrotation Xrotation Yrotation
                            End Site
                            {
                                OFFSET 13.236923 0.000000 0.000000
                            }
                        }
                    }
                }
            }
            JOINT RightShoulder
            {
                OFFSET -3.474926 18.396038 -0.314103
                CHANNELS 3 Zrotation Xrotation Yrotation
                JOINT RightArm
                {
                    OFFSET -10.880760 0.000000 0.000000
                    CHANNELS 3 Zrotation Xrotation Yrotation
                    JOINT RightForeArm
                    {
                        OFFSET -27.185530 0.000000 0.000000
                        CHANNELS 3 Zrotation Xrotation Yrotation
                        JOINT RightHand
                        {
                            OFFSET -27.825975 0.000000 0.000000
                            CHANNELS 3 Zrotation Xrotation Yrotation
                            End Site
                            {
                                OFFSET -13.236923 0.000000 0.000000
                            }
                        }
                    }
                }
            }
        }
    }
    JOINT LeftUpLeg
    {
        OFFSET 8.824615 0.000000 0.000000
        CHANNELS 3 Zrotation Xrotation Yrotation
        JOINT LeftLeg
        {
            OFFSET -0.000000 -35.111282 0.000000
            CHANNELS 3 Zrotation Xrotation Yrotation
            JOINT LeftFoot
            {
                OFFSET -0.000000 -42.324711 0.000000
                CHANNELS 3 Zrotation Xrotation Yrotation
                JOINT LeftToeBase
                {
                    OFFSET -0.000000 -5.735999 13.236923
                    CHANNELS 3 Zrotation Xrotation Yrotation
                    End Site
                    {
                        OFFSET -0.000000 0.000000 3.529846
                    }
                }
            }
        }
    }
    JOINT RightUpLeg
    {
        OFFSET -8.824615 0.000000 0.000000
        CHANNELS 3 Zrotation Xrotation Yrotation
        JOINT RightLeg
        {
            OFFSET -0.000000 -35.111282 0.000000
            CHANNELS 3 Zrotation Xrotation Yrotation
            JOINT RightFoot
            {
                OFFSET -0.000000 -42.324711 0.000000
                CHANNELS 3 Zrotation Xrotation Yrotation
                JOINT RightToeBase
                {
                    OFFSET -0.000000 -5.735999 13.236923
                    CHANNELS 3 Zrotation Xrotation Yrotation
                    End Site
                    {
                        OFFSET -0.000000 0.000000 3.529846
                    }
                }
            }
        }
    }
}
MOTION
Frames:    8
Frame Time:    0.008333
-28.780952    86.300552    87.554512    -25.862509    15.211717    106.561676    2.168343    -6.066363    -3.759510    5.430560    11.388065    -4.416378    -3.440834    18.131487    20.263191    -17.506565    0.356232    18.707424    9.301162    13.421915    -9.283498    -58.010201    28.137526    -16.501757    46.837860    -18.336525    -67.049034    45.060295    15.112599    0.277849    -6.806171    2.960670    -4.257401    30.390112    21.181147    46.317524    0.642811    -14.126639    130.337082    -14.516963    -13.900125    -12.706794    -13.621202    -63.972733    -22.001665    -57.052597    73.044800    54.738247    -3.245866    10.272289    -5.135661    -0.714140    -0.769185    0.792701    -19.344431    -37.218319    1.392066    0.688704    25.431343    7.681069    -7.872721    -1.729515    -19.721670    -2.594703    -1.713137    2.812989    
-28.709990    86.284752    87.510933    -25.740683    15.396629    106.280739    2.096533    -6.030783    -3.736697    5.168557    11.485044    -4.367371    -3.634659    18.195839    20.367167    -17.293346    0.290351    18.829821    9.209559    13.443398    -9.176729    -57.738396    28.082214    -16.762636    46.914898    -18.282066    -66.809410    44.926533    15.108152    0.362950    -6.780013    3.001359    -4.240579    30.382088    21.045431    46.175091    0.676717    -14.035543    130.298737    -14.555267    -13.871871    -12.727312    -13.148179    -64.199753    -21.552616    -61.178356    73.522209    56.580566    -3.572323    9.825568    -3.043948    -0.685120    -0.736586    0.760444    -19.368771    -37.262890    1.266316    0.685960    25.638437    7.711567    -7.804509    -1.685177    -19.606318    -2.595943    -1.885618    2.815020    
-28.643169    86.275757    87.465370    -25.621393    15.648358    106.009186    1.997526    -5.983453    -3.697280    4.848642    11.587642    -4.294040    -3.860408    18.260271    20.462896    -17.060469    0.223669    18.945440    9.102860    13.476115    -9.037693    -57.473553    28.002659    -17.000938    46.973286    -18.216373    -66.593109    44.839207    15.101240    0.413541    -6.764010    3.038993    -4.212327    30.374981    20.916544    46.035088    0.703385    -13.962346    130.259750    -14.593514    -13.846220    -12.751063    -12.556273    -64.466484    -20.981583    -65.782402    73.987968    58.816971    -3.892850    9.342149    -0.895372    -0.655974    -0.705358    0.728053    -19.455780    -37.302032    1.148285    0.699628    25.854448    7.680622    -7.788510    -1.608653    -19.524311    -2.594736    -2.079515    2.814485    
-28.581619    86.273239    87.418633    -25.506691    15.963729    105.748367    1.871591    -5.924766    -3.641285    4.473549    11.694283    -4.196596    -4.113450    18.322477    20.549612    -16.812817    0.157343    19.053091    8.984005    13.519071    -8.868179    -57.221394    27.894003    -17.214504    47.008106    -18.134674    -66.399498    44.812084    15.089884    0.422540    -6.757808    3.071946    -4.171668    30.366024    20.795296    45.897285    0.721379    -13.911624    130.221329    -14.628302    -13.824773    -12.776093    -11.833527    -64.768829    -20.283440    -70.873589    74.415848    61.458298    -4.206597    8.819913    1.313108    -0.622199    -0.672065    0.690524    -19.606344    -37.337448    1.018588    0.728600    26.075033    7.593177    -7.827531    -1.501945    -19.473007    -2.591504    -2.292606    2.811833    
-28.525740    86.276932    87.371323    -25.397200    16.340895    105.496033    1.718063    -5.854617    -3.568543    4.044573    11.805046    -4.074810    -4.391863    18.380747    20.627640    -16.552568    0.091013    19.152868    8.854358    13.571178    -8.668859    -56.983311    27.752596    -17.404121    47.017784    -18.031546    -66.221909    44.854321    15.072159    0.385517    -6.761410    3.099514    -4.117389    30.353886    20.680319    45.760471    0.729174    -13.885925    130.183716    -14.656241    -13.807803    -12.800324    -10.957021    -65.104248    -19.445192    -76.480598    74.778755    64.511177    -4.515374    8.250551    3.607714    -0.578806    -0.631981    0.642319    -19.820044    -37.370857    0.854808    0.769409    26.297071    7.458003    -7.921936    -1.367880    -19.448790    -2.586688    -2.523293    2.807533    
-28.476536    86.286690    87.324745    -25.294481    16.773058    105.252113    1.538318    -5.773345    -3.479545    3.568713    11.919136    -3.929857    -4.691291    18.432686    20.696663    -16.283678    0.024539    19.244057    8.716645    13.630549    -8.443437    -56.761707    27.577715    -17.568867    47.002426    -17.902180    -66.052322    44.971390    15.047054    0.300240    -6.774852    3.120517    -4.048952    30.337465    20.571930    45.624725    0.725461    -13.888461    130.147522    -14.672689    -13.796798    -12.821214    -9.908147    -65.465240    -18.460743    -82.526978    75.042953    67.907707    -4.817069    7.630956    5.987951    -0.521537    -0.580784    0.578713    -20.091963    -37.403038    0.637435    0.816105    26.514069    7.286682    -8.068572    -1.212162    -19.447937    -2.581703    -2.766336    2.803102    
-28.434191    86.302498    87.279785    -25.198378    17.256937    105.013168    1.332340    -5.680133    -3.374184    3.048897    12.036953    -3.761914    -5.010009    18.476536    20.757286    -16.007341    -0.042326    19.327354    8.571520    13.695130    -8.193932    -56.554214    27.369408    -17.710205    46.964363    -17.741119    -65.876938    45.161972    15.012904    0.166768    -6.798550    3.134598    -3.965717    30.317596    20.468838    45.488876    0.709880    -13.919332    130.112335    -14.674120    -13.791853    -12.837047    -8.655229    -65.846123    -17.314375    -88.941422    75.178688    71.560905    -5.112245    6.951161    8.474829    -0.445127    -0.513834    0.493866    -20.417532    -37.434345    0.348273    0.861450    26.721859    7.091602    -8.262287    -1.040523    -19.467581    -2.578821    -3.016636    2.800984    
-28.398979    86.324516    87.237511    -25.109011    17.789316    104.776421    1.100275    -5.574126    -3.252472    2.487458    12.158729    -3.571110    -5.346776    18.511322    20.810266    -15.723785    -0.110278    19.403498    8.419953    13.762346    -7.922988    -56.357010    27.128492    -17.829329    46.905727    -17.542065    -65.680122    45.422642    14.968100    -0.013197    -6.833243    3.141620    -3.867730    30.295719    20.370842    45.352623    0.682372    -13.979023    130.077606    -14.656956    -13.793735    -12.847305    -7.162703    -66.239883    -15.988634    -95.589455    75.160759    75.328438    -5.400177    6.201035    11.081319    -0.344173    -0.428623    0.381799    -20.791626    -37.464985    -0.027873    0.896828    26.916351    6.886242    -8.496397    -0.859332    -19.506020    -2.580550    -3.268033    2.803885    
